#N canvas 430 25 844 682 10;
#X obj -2 5 cnv 15 100 60 empty empty empty 20 12 0 14 -195568 -66577
0;
#N canvas 227 244 476 345 gemwin 0;
#X obj 82 176 gemwin;
#X obj 7 89 outlet;
#X obj 7 10 inlet;
#X msg 7 70 set destroy;
#X msg 412 112 destroy;
#X msg 96 71 set create;
#X obj 7 41 route create;
#X msg 72 112 title goldfish \, dimen 640 360 \, lighting 0 \, create
\, 1;
#X connect 2 0 6 0;
#X connect 3 0 1 0;
#X connect 4 0 0 0;
#X connect 5 0 1 0;
#X connect 6 0 3 0;
#X connect 6 0 7 0;
#X connect 6 1 5 0;
#X connect 6 1 4 0;
#X connect 7 0 0 0;
#X restore 3 44 pd gemwin;
#X msg 3 22 create;
#X text -1 1 Create window:;
#X obj 112 16 tgl 15 0 empty empty empty 17 7 0 10 -262144 -1 -1 0
1;
#X text 129 15 enable;
#N canvas 311 386 346 237 webcam-src 0;
#X obj 12 132 pix_video;
#X msg 89 86 device 2;
#X msg 97 107 driver 0;
#X obj 12 72 gemhead 10;
#X obj 12 155 pix_rgba;
#X obj 12 52 tgl 15 0 empty empty empty 17 7 0 10 -262144 -1 -1 0 1
;
#X obj 89 63 loadbang;
#X obj 12 30 inlet;
#X obj 12 178 outlet;
#X obj 204 35 cnv 15 90 20 empty empty empty 20 12 0 14 -233017 -66577
0;
#X text 212 35 Webcam Input;
#X obj 12 102 alpha;
#X connect 0 0 4 0;
#X connect 1 0 0 0;
#X connect 2 0 0 0;
#X connect 3 0 11 0;
#X connect 4 0 8 0;
#X connect 5 0 3 0;
#X connect 6 0 1 0;
#X connect 6 0 2 0;
#X connect 7 0 5 0;
#X connect 11 0 0 0;
#X restore 112 36 pd webcam-src;
#N canvas 94 307 450 314 radialblurVFX 0;
#X obj 10 8 inlet;
#X obj 55 82 vsl 30 80 0 1 0 0 empty empty scale 0 -9 0 8 -262144 -1
-1 0 1;
#X obj 98 82 vsl 30 80 0 1 0 0 empty empty quality -8 -9 0 8 -262144
-1 -1 0 1;
#X obj 10 249 outlet;
#X text 51 49 RadialBlurVFX;
#X floatatom 55 167 5 0 0 0 - - -;
#X floatatom 98 167 5 0 0 0 - - -;
#X obj 10 211 pix_freeframe ./plugins/RadialBlurVFX;
#X connect 0 0 7 0;
#X connect 1 0 5 0;
#X connect 2 0 6 0;
#X connect 5 0 7 1;
#X connect 6 0 7 2;
#X connect 7 0 3 0;
#X coords 0 -1 1 1 85 135 2 50 50;
#X restore -2 76 pd radialblurVFX;
#X obj 751 629 pix_texture;
#X obj 751 604 r to-output;
#X obj 751 655 square 4 3;
#N canvas 367 266 437 372 BloomVFX 0;
#X obj 12 6 inlet;
#X obj 57 83 vsl 30 80 0 1 0 1 empty empty radius -2 -9 0 8 -262144
-1 -1 2686 1;
#X obj 12 279 outlet;
#X floatatom 57 168 5 0 0 0 - - -;
#X text 53 50 BloomVFX;
#X obj 107 83 vsl 30 80 1 4 0 1 empty empty passes -2 -9 0 8 -262144
-1 -1 5267 1;
#X floatatom 107 168 5 0 0 0 - - -;
#X obj 157 83 vsl 30 80 0 1 0 1 empty empty floor -2 -9 0 8 -262144
-1 -1 4898 1;
#X floatatom 157 168 5 0 0 0 - - -;
#X obj 207 83 vsl 30 80 0 1 0 1 empty empty ceiling -2 -9 0 8 -262144
-1 -1 6478 1;
#X floatatom 207 168 5 0 0 0 - - -;
#X obj 257 83 vsl 30 80 0 1 0 1 empty empty aspect -2 -9 0 8 -262144
-1 -1 2686 1;
#X floatatom 257 168 5 0 0 0 - - -;
#X obj 307 83 vsl 30 80 0 1 0 1 empty empty boost -2 -9 0 8 -262144
-1 -1 1027 1;
#X floatatom 307 168 5 0 0 0 - - -;
#X obj 269 52 bng 15 250 50 0 empty empty defaults 17 7 0 8 -262144
-1 -1;
#X obj 57 23 nbx 4 14 0 1 0 1 empty empty empty 0 -8 0 10 -262144 -1
-1 0.34 256;
#X obj 107 23 nbx 1 14 1 4 0 1 empty empty empty 0 -8 0 10 -262144
-1 -1 3 256;
#X obj 157 23 nbx 4 14 0 1 0 1 empty empty empty 0 -8 0 10 -262144
-1 -1 0.62 256;
#X obj 207 23 nbx 4 14 0 1 0 1 empty empty empty 0 -8 0 10 -262144
-1 -1 0.82 256;
#X obj 257 23 nbx 4 14 0 1 0 1 empty empty empty 0 -8 0 10 -262144
-1 -1 0.34 256;
#X obj 307 23 nbx 4 14 0 1 0 1 empty empty empty 0 -8 0 10 -262144
-1 -1 0.13 256;
#X text 69 277 This effect tries to simulate the photographic problem
of 'blooming' \, where areas of a picture exposed to very strong light
bleed into neighbouring areas \, brightening them and giving light
sources a halo.;
#X obj 12 241 pix_freeframe ./plugins/BloomVFX;
#X text 14 334 Uses the Pete's Plugins freeframe plugin Bloom. http://www.petewarden.com
;
#X connect 0 0 23 0;
#X connect 1 0 3 0;
#X connect 3 0 23 1;
#X connect 5 0 6 0;
#X connect 6 0 23 2;
#X connect 7 0 8 0;
#X connect 8 0 23 3;
#X connect 9 0 10 0;
#X connect 10 0 23 4;
#X connect 11 0 12 0;
#X connect 12 0 23 5;
#X connect 13 0 14 0;
#X connect 14 0 23 6;
#X connect 15 0 16 0;
#X connect 15 0 17 0;
#X connect 15 0 18 0;
#X connect 15 0 19 0;
#X connect 15 0 20 0;
#X connect 15 0 21 0;
#X connect 16 0 1 0;
#X connect 17 0 5 0;
#X connect 18 0 7 0;
#X connect 19 0 9 0;
#X connect 20 0 11 0;
#X connect 21 0 13 0;
#X connect 23 0 2 0;
#X coords 0 -1 1 1 295 135 2 50 50;
#X restore 249 222 pd BloomVFX;
#N canvas 762 358 450 356 BackLightVFX 0;
#X obj -30 8 inlet;
#X obj 55 122 vsl 30 80 0 1 0 0 empty empty scale -2 -9 0 8 -262144
-1 -1 2370 1;
#X obj -30 289 outlet;
#X floatatom 55 207 5 0 0 0 - - -;
#X text 51 89 BackLightVFX;
#X text 14 1 This effect draws a line away from the center of the image
from each pixel. The brighter the pixel \, the longer the line is.
;
#X obj 105 122 vsl 30 80 0 1 0 0 empty empty floor -2 -9 0 8 -262144
-1 -1 2291 1;
#X floatatom 105 207 5 0 0 0 - - -;
#X obj 155 122 vsl 30 80 0 1 0 0 empty empty ceiling -2 -9 0 8 -262144
-1 -1 5767 1;
#X floatatom 155 207 5 0 0 0 - - -;
#X obj 131 92 bng 15 250 50 0 empty empty defaults 17 7 0 8 -262144
-1 -1;
#X obj 55 64 nbx 4 14 0 1 0 1 empty empty empty 0 -8 0 10 -262144 -1
-1 0.3 256;
#X obj 105 64 nbx 4 14 0 1 0 1 empty empty empty 0 -8 0 10 -262144
-1 -1 0.29 256;
#X obj 155 64 nbx 4 14 0 1 0 1 empty empty empty 0 -8 0 10 -262144
-1 -1 0.73 256;
#X obj -30 251 pix_freeframe ./plugins/BackLightVFX;
#X text -32 306 Uses the Pete's Plugins freeframe plugin BackLight.
http://www.petewarden.com;
#X connect 0 0 14 0;
#X connect 1 0 3 0;
#X connect 3 0 14 1;
#X connect 6 0 7 0;
#X connect 7 0 14 2;
#X connect 8 0 9 0;
#X connect 9 0 14 3;
#X connect 10 0 13 0;
#X connect 10 0 12 0;
#X connect 10 0 11 0;
#X connect 11 0 1 0;
#X connect 12 0 6 0;
#X connect 13 0 8 0;
#X connect 14 0 2 0;
#X coords 0 -1 1 1 150 135 2 50 90;
#X restore 88 76 pd BackLightVFX;
#N canvas 367 266 437 372 ChromiumVFX 0;
#X obj 12 6 inlet;
#X obj 57 83 vsl 30 80 0 1 0 0 empty empty edge_1 -2 -9 0 8 -262144
-1 -1 316 1;
#X obj 12 279 outlet;
#X floatatom 57 168 5 0 0 0 - - -;
#X obj 107 83 vsl 30 80 0 1 0 0 empty empty edge_2 -2 -9 0 8 -262144
-1 -1 7900 1;
#X floatatom 107 168 5 0 0 0 - - -;
#X obj 157 83 vsl 30 80 0 1 0 0 empty empty red -2 -9 0 8 -262144 -1
-1 4029 1;
#X floatatom 157 168 5 0 0 0 - - -;
#X obj 207 83 vsl 30 80 0 1 0 0 empty empty green -2 -9 0 8 -262144
-1 -1 6715 1;
#X floatatom 207 168 5 0 0 0 - - -;
#X obj 257 83 vsl 30 80 0 1 0 0 empty empty blue -2 -9 0 8 -262144
-1 -1 5372 1;
#X floatatom 257 168 5 0 0 0 - - -;
#X obj 226 52 bng 15 250 50 0 empty empty defaults 17 7 0 8 -262144
-1 -1;
#X obj 57 23 nbx 4 14 0 1 0 1 empty empty empty 0 -8 0 10 -262144 -1
-1 0.04 256;
#X obj 107 23 nbx 4 14 1 4 0 1 empty empty empty 0 -8 0 10 -262144
-1 -1 1 256;
#X obj 157 23 nbx 4 14 0 1 0 1 empty empty empty 0 -8 0 10 -262144
-1 -1 0.51 256;
#X obj 207 23 nbx 4 14 0 1 0 1 empty empty empty 0 -8 0 10 -262144
-1 -1 0.85 256;
#X obj 257 23 nbx 4 14 0 1 0 1 empty empty empty 0 -8 0 10 -262144
-1 -1 0.68 256;
#X text 53 50 ChromiumVFX;
#X obj 12 241 pix_freeframe ./plugins/ChromiumVFX;
#X text 69 277 This effect alters the colours in the image to give
it an other worldly look. It's inspired by the free photoshop filter
of the same name.;
#X text 14 334 Uses the Pete's Plugins freeframe plugin Chromium. http://www.petewarden.com
;
#X connect 0 0 19 0;
#X connect 1 0 3 0;
#X connect 3 0 19 1;
#X connect 4 0 5 0;
#X connect 5 0 19 2;
#X connect 6 0 7 0;
#X connect 7 0 19 3;
#X connect 8 0 9 0;
#X connect 9 0 19 4;
#X connect 10 0 11 0;
#X connect 11 0 19 5;
#X connect 12 0 13 0;
#X connect 12 0 14 0;
#X connect 12 0 15 0;
#X connect 12 0 16 0;
#X connect 12 0 17 0;
#X connect 13 0 1 0;
#X connect 14 0 4 0;
#X connect 15 0 6 0;
#X connect 16 0 8 0;
#X connect 17 0 10 0;
#X connect 19 0 2 0;
#X coords 0 -1 1 1 245 135 2 50 50;
#X restore -2 222 pd ChromiumVFX;
#N canvas 304 301 437 372 HalfToneVFX 0;
#X obj 12 6 inlet;
#X obj 57 83 vsl 30 80 0 1 0 0 empty empty dot_size -2 -9 0 8 -262144
-1 -1 316 1;
#X obj 12 279 outlet;
#X floatatom 57 168 5 0 0 0 - - -;
#X obj 107 83 vsl 30 80 0 1 0 0 empty empty style -2 -9 0 8 -262144
-1 -1 7900 1;
#X floatatom 107 168 5 0 0 0 - - -;
#X obj 157 83 vsl 30 80 0 359 0 0 empty empty angle -2 -9 0 8 -262144
-1 -1 11 1;
#X floatatom 157 168 5 0 0 0 - - -;
#X obj 207 83 vsl 30 80 0 1 0 0 empty empty smooth -2 -9 0 8 -262144
-1 -1 6715 1;
#X floatatom 207 168 5 0 0 0 - - -;
#X obj 173 52 bng 15 250 50 0 empty empty defaults 17 7 0 8 -262144
-1 -1;
#X obj 57 23 nbx 4 14 0 1 0 1 empty empty empty 0 -8 0 10 -262144 -1
-1 0.04 256;
#X obj 107 23 nbx 4 14 1 4 0 1 empty empty empty 0 -8 0 10 -262144
-1 -1 1 256;
#X obj 157 23 nbx 4 14 0 1 0 1 empty empty empty 0 -8 0 10 -262144
-1 -1 0.51 256;
#X obj 207 23 nbx 4 14 0 1 0 1 empty empty empty 0 -8 0 10 -262144
-1 -1 0.85 256;
#X text 69 277 This effect alters the colours in the image to give
it an other worldly look. It's inspired by the free photoshop filter
of the same name.;
#X text 14 334 Uses the Pete's Plugins freeframe plugin Chromium. http://www.petewarden.com
;
#X text 53 50 PosterizeVFX;
#X obj 12 241 pix_freeframe ./plugins/PosterizeVFX;
#X connect 0 0 18 0;
#X connect 1 0 3 0;
#X connect 3 0 18 1;
#X connect 4 0 5 0;
#X connect 6 0 7 0;
#X connect 8 0 9 0;
#X connect 10 0 11 0;
#X connect 10 0 12 0;
#X connect 10 0 13 0;
#X connect 10 0 14 0;
#X connect 11 0 1 0;
#X connect 12 0 4 0;
#X connect 13 0 6 0;
#X connect 14 0 8 0;
#X connect 18 0 2 0;
#X coords 0 -1 1 1 195 135 2 50 50;
#X restore 248 76 pd HalfToneVFX;
#N canvas 517 345 437 372 DirectionalBlurVFX 0;
#X obj 12 6 inlet;
#X obj 12 279 outlet;
#X obj 12 241 pix_freeframe ./plugins/DirectionalBlurVFX;
#X obj 67 82 vsl 30 80 0 2 0 0 empty empty radius -2 -9 0 8 -262144
-1 -1 0 1;
#X obj 117 82 vsl 30 80 0 1 0 0 empty empty angle -2 -9 0 8 -262144
-1 -1 0 1;
#X obj 94 211 * 360;
#X floatatom 117 167 5 0 359 0 - - -;
#X obj 131 211 / 360;
#X text 54 50 DirectionalBlurVFX;
#X text 69 277 The input image is blurred in a single direction.;
#X text 14 334 Uses the Pete's Plugins freeframe plugin DirectionalBlur.
http://www.petewarden.com;
#X connect 0 0 2 0;
#X connect 2 0 1 0;
#X connect 3 0 2 1;
#X connect 4 0 2 2;
#X connect 4 0 5 0;
#X connect 5 0 6 0;
#X connect 6 0 7 0;
#X connect 7 0 4 0;
#X coords 0 -1 1 1 125 135 2 50 50;
#X restore 448 76 pd DirectionalBlurVFX;
#X obj 2 526 cnv 15 500 120 empty empty empty 20 12 0 14 -233017 -66577
0;
#X obj 1 652 s to-output;
#N canvas 517 511 437 206 BurnVFX 0;
#X obj 12 6 inlet;
#X obj 12 79 outlet;
#X obj 12 41 pix_freeframe ./plugins/BurnVFX;
#X text 69 77 Not sure what this does. Looks kind of burnt I guess.
;
#X text 14 134 Uses the Pete's Plugins freeframe plugin Burn. http://www.petewarden.com
;
#X connect 0 0 2 0;
#X connect 2 0 1 0;
#X coords 0 0 1 1 125 135 0;
#X restore 108 534 pd BurnVFX;
#N canvas 517 527 437 190 ExclusionVFX 0;
#X obj 12 6 inlet;
#X obj 12 79 outlet;
#X obj 12 41 pix_freeframe ./plugins/ExclusionVFX;
#X text 69 77 Tweaks colours over a certain brightness level;
#X text 14 134 Uses the Pete's Plugins freeframe plugin Exclusion.
http://www.petewarden.com;
#X connect 0 0 2 0;
#X connect 2 0 1 0;
#X coords 0 0 1 1 125 135 0;
#X restore 8 534 pd ExclusionVFX;
#N canvas 645 345 437 372 DirectionalBlurVFX 0;
#X obj 12 6 inlet;
#X obj 12 279 outlet;
#X obj 67 82 vsl 30 80 0.01 1 1 0 empty empty distort -2 -9 0 8 -262144
-1 -1 3074 1;
#X obj 117 82 vsl 30 80 0 1 0 0 empty empty radius -2 -9 0 8 -262144
-1 -1 7900 1;
#X obj 12 241 pix_freeframe ./plugins/FishEyeVFX;
#X obj 167 82 vsl 30 80 0 1 0 0 empty empty x -2 -9 0 8 -262144 -1
-1 3950 1;
#X obj 217 82 vsl 30 80 0 1 0 0 empty empty y -2 -9 0 8 -262144 -1
-1 3950 1;
#X text 69 277 This gives the effect of a wide angle \, fish eye lens.
Similar to a peep hole.;
#X text 14 334 Uses the Pete's Plugins freeframe plugin FishEye. http://www.petewarden.com
;
#X text 55 52 FishEyeVFX;
#X obj 189 53 bng 15 250 50 0 empty empty defaults 17 7 0 8 -262144
-1 -1;
#X obj 167 23 nbx 3 14 0 1 0 1 empty empty empty 0 -8 0 10 -262144
-1 -1 0.5 256;
#X obj 217 23 nbx 3 14 0 1 0 1 empty empty empty 0 -8 0 10 -262144
-1 -1 0.5 256;
#X obj 117 23 nbx 3 14 0 1 0 1 empty empty empty 0 -8 0 10 -262144
-1 -1 1 256;
#X obj 67 23 nbx 3 14 0 1 0 1 empty empty empty 0 -8 0 10 -262144 -1
-1 0.06 256;
#X floatatom 67 167 5 0 0 0 - - -;
#X floatatom 117 167 5 0 0 0 - - -;
#X floatatom 167 167 5 0 0 0 - - -;
#X floatatom 217 167 5 0 0 0 - - -;
#X connect 0 0 4 0;
#X connect 2 0 4 1;
#X connect 2 0 15 0;
#X connect 3 0 4 2;
#X connect 3 0 16 0;
#X connect 4 0 1 0;
#X connect 5 0 4 3;
#X connect 5 0 17 0;
#X connect 6 0 4 4;
#X connect 6 0 18 0;
#X connect 10 0 12 0;
#X connect 10 0 11 0;
#X connect 10 0 13 0;
#X connect 10 0 14 0;
#X connect 11 0 5 0;
#X connect 12 0 6 0;
#X connect 13 0 3 0;
#X connect 14 0 2 0;
#X coords 0 -1 1 1 210 135 2 50 50;
#X restore -2 367 pd DirectionalBlurVFX;
#X connect 1 0 2 0;
#X connect 2 0 1 0;
#X connect 4 0 6 0;
#X connect 8 0 10 0;
#X connect 9 0 8 0;
